<?xml version="1.0" encoding="UTF-8" standalone="no"?>
<!-- Created with Inkscape (http://www.inkscape.org/) -->

<svg
   xmlns:dc="http://purl.org/dc/elements/1.1/"
   xmlns:cc="http://creativecommons.org/ns#"
   xmlns:rdf="http://www.w3.org/1999/02/22-rdf-syntax-ns#"
   xmlns:svg="http://www.w3.org/2000/svg"
   xmlns="http://www.w3.org/2000/svg"
   xmlns:sodipodi="http://sodipodi.sourceforge.net/DTD/sodipodi-0.dtd"
   xmlns:inkscape="http://www.inkscape.org/namespaces/inkscape"
   version="1.1"
   id="svg2"
   xml:space="preserve"
   width="836.32916"
   height="306.82602"
   viewBox="0 0 836.32917 306.82602"
   sodipodi:docname="norare-logo.svg"
   inkscape:version="0.92.4 5da689c313, 2019-01-14"><metadata
     id="metadata8"><rdf:RDF><cc:Work
         rdf:about=""><dc:format>image/svg+xml</dc:format><dc:type
           rdf:resource="http://purl.org/dc/dcmitype/StillImage" /><dc:title></dc:title></cc:Work></rdf:RDF></metadata><defs
     id="defs6"><clipPath
       clipPathUnits="userSpaceOnUse"
       id="clipPath20"><path
         d="M 0,0 H 959.76 V 540 H 0 Z"
         id="path18"
         inkscape:connector-curvature="0" /></clipPath><clipPath
       clipPathUnits="userSpaceOnUse"
       id="clipPath30"><path
         d="M 0,0 H 960 V 540 H 0 Z"
         id="path28"
         inkscape:connector-curvature="0" /></clipPath><clipPath
       clipPathUnits="userSpaceOnUse"
       id="clipPath40"><path
         d="m 90.5,115.5 h 779 v 309 h -779 z"
         id="path38"
         inkscape:connector-curvature="0" /></clipPath><clipPath
       clipPathUnits="userSpaceOnUse"
       id="clipPath54"><path
         d="M 148.4272,128.1366 H 308.8919 V 288.0812 H 148.4272 Z"
         id="path52"
         inkscape:connector-curvature="0" /></clipPath><clipPath
       clipPathUnits="userSpaceOnUse"
       id="clipPath68"><path
         d="M 378.4249,128.1259 H 592.8778 V 249.023 H 378.4249 Z"
         id="path66"
         inkscape:connector-curvature="0" /></clipPath><clipPath
       clipPathUnits="userSpaceOnUse"
       id="clipPath112"><path
         d="m 90.5,115.5 h 779 v 309 h -779 z"
         id="path110"
         inkscape:connector-curvature="0" /></clipPath><clipPath
       clipPathUnits="userSpaceOnUse"
       id="clipPath172"><path
         d="M 0,0 H 960 V 540 H 0 Z"
         id="path170"
         inkscape:connector-curvature="0" /></clipPath></defs><sodipodi:namedview
     pagecolor="#ffffff"
     bordercolor="#666666"
     borderopacity="1"
     objecttolerance="10"
     gridtolerance="10"
     guidetolerance="10"
     inkscape:pageopacity="0"
     inkscape:pageshadow="2"
     inkscape:window-width="1920"
     inkscape:window-height="1007"
     id="namedview4"
     showgrid="false"
     fit-margin-top="0"
     fit-margin-left="0"
     fit-margin-right="0"
     fit-margin-bottom="0"
     inkscape:zoom="0.65555556"
     inkscape:cx="411.33262"
     inkscape:cy="163.85545"
     inkscape:window-x="0"
     inkscape:window-y="49"
     inkscape:window-maximized="1"
     inkscape:current-layer="g4913" /><g
     id="g10"
     inkscape:groupmode="layer"
     inkscape:label="norare-logo"
     transform="matrix(1.3333333,0,0,-1.3333333,-190.56314,464.8435)"><g
       id="g12" /><g
       id="g34"><g
         id="g36"
         clip-path="url(#clipPath40)" /></g><g
       id="g114"
       transform="matrix(6.020404,0,0,-6.029062,718.94741,295.92323)"><text
   transform="translate(0,18)"
   style="font-variant:normal;font-weight:bold;font-size:28.28000069px;font-family:Kollektif;-inkscape-font-specification:Kollektif-Bold;writing-mode:lr-tb;fill:#000000;fill-opacity:1;fill-rule:nonzero;stroke:none"
   id="text118"><tspan
     x="0"
     y="0"
     id="tspan116" /></text>

</g><g
       id="g120"
       transform="matrix(6.020404,0,0,-6.029062,718.94741,295.92323)"><text
   transform="translate(20.01247,18)"
   style="font-variant:normal;font-weight:bold;font-size:28.28000069px;font-family:Kollektif;-inkscape-font-specification:Kollektif-Bold;writing-mode:lr-tb;fill:#000000;fill-opacity:1;fill-rule:nonzero;stroke:none"
   id="text124"><tspan
     x="0"
     y="0"
     id="tspan122" /></text>

</g><g
       id="g138"
       transform="matrix(6.020404,0,0,-6.029062,445.43171,295.92323)"><text
   transform="translate(0,18)"
   style="font-variant:normal;font-weight:bold;font-size:28.28000069px;font-family:Kollektif;-inkscape-font-specification:Kollektif-Bold;writing-mode:lr-tb;fill:#000000;fill-opacity:1;fill-rule:nonzero;stroke:none"
   id="text142"><tspan
     x="0"
     y="0"
     id="tspan140" /></text>

</g><g
       id="g144"
       transform="matrix(6.020404,0,0,-6.029062,445.43171,295.92323)"><text
   transform="translate(20.01247,18)"
   style="font-variant:normal;font-weight:bold;font-size:28.28000069px;font-family:Kollektif;-inkscape-font-specification:Kollektif-Bold;writing-mode:lr-tb;fill:#000000;fill-opacity:1;fill-rule:nonzero;stroke:none"
   id="text148"><tspan
     x="0"
     y="0"
     id="tspan146" /></text>

</g><g
       id="g150"
       transform="matrix(6.020404,0,0,-6.029062,167.89196,295.92323)"><text
   transform="translate(0,18)"
   style="font-variant:normal;font-weight:bold;font-size:28.28000069px;font-family:Kollektif;-inkscape-font-specification:Kollektif-Bold;writing-mode:lr-tb;fill:#000000;fill-opacity:1;fill-rule:nonzero;stroke:none"
   id="text154"><tspan
     x="0"
     y="0"
     id="tspan152" /></text>

</g><g
       id="g156"
       transform="matrix(6.020404,0,0,-6.029062,167.89196,295.92323)"><text
   transform="translate(21.22789,18)"
   style="font-variant:normal;font-weight:bold;font-size:28.28000069px;font-family:Kollektif;-inkscape-font-specification:Kollektif-Bold;writing-mode:lr-tb;fill:#000000;fill-opacity:1;fill-rule:nonzero;stroke:none"
   id="text160"><tspan
     x="0"
     y="0"
     id="tspan158" /></text>

</g><g
       id="g4913"><g
         transform="translate(-5.7203391,-9.6234779)"
         id="g48"><g
           clip-path="url(#clipPath54)"
           id="g50"><path
             inkscape:connector-curvature="0"
             id="path56"
             style="fill:#00568c;fill-opacity:1;fill-rule:nonzero;stroke:none"
             d="m 283.2172,150.2504 -6.1066,-6.9886 c -0.429,-0.4931 -1.0511,-0.7766 -1.7071,-0.7766 -0.5464,0 -1.0741,0.1983 -1.4859,0.5581 -0.4555,0.3979 -0.7292,0.95 -0.7708,1.5546 -0.0415,0.6052 0.1538,1.1896 0.5518,1.6465 l 6.3125,7.2629 -12.3801,12.4076 -6.0206,-6.9281 c -0.4297,-0.4944 -1.0521,-0.7773 -1.7078,-0.7773 -0.5469,0 -1.0744,0.1977 -1.4858,0.5582 -0.4556,0.3966 -0.7293,0.9493 -0.7711,1.5539 -0.0419,0.6046 0.1541,1.1897 0.5521,1.6466 l 6.2245,7.1625 -12.3791,12.4076 -5.9336,-6.8281 c -0.43,-0.4944 -1.0521,-0.7773 -1.7078,-0.7773 -0.5463,0 -1.0738,0.1971 -1.4852,0.5562 -0.9418,0.8209 -1.0409,2.2573 -0.2213,3.2015 l 6.1389,7.0633 -12.3794,12.4075 -5.8461,-6.7278 c -0.4309,-0.495 -1.0533,-0.7785 -1.7084,-0.7785 -0.546,0 -1.0735,0.1977 -1.4852,0.5575 -0.9408,0.8215 -1.0399,2.2578 -0.2212,3.2014 l 6.0519,6.9627 -12.3794,12.4072 -5.7585,-6.6275 c -0.4309,-0.4944 -1.0534,-0.7776 -1.7084,-0.7776 -0.546,0 -1.0738,0.1977 -1.4856,0.5562 -0.4565,0.3986 -0.7304,0.9506 -0.772,1.5552 -0.0419,0.6049 0.1541,1.1897 0.5518,1.6463 l 5.9637,6.8633 -12.3795,12.4072 -5.6718,-6.5272 c -0.4309,-0.4944 -1.053,-0.7779 -1.7081,-0.7779 -0.546,0 -1.0735,0.198 -1.4855,0.5568 -0.9415,0.8222 -1.0403,2.2582 -0.2209,3.2015 l 5.8773,6.7627 -12.3791,12.4072 -5.5849,-6.4272 c -0.4306,-0.4947 -1.053,-0.7786 -1.7077,-0.7786 -0.5457,0 -1.0732,0.198 -1.4859,0.5575 -0.9418,0.8222 -1.0403,2.2585 -0.2203,3.2018 l 5.7898,6.6634 -12.3801,12.4078 -5.4982,-6.3269 c -0.4293,-0.4944 -1.0524,-0.7786 -1.7084,-0.7786 -0.5466,0 -1.0748,0.198 -1.4865,0.5575 -0.4562,0.3979 -0.7305,0.95 -0.7724,1.5546 -0.0415,0.6049 0.1541,1.1896 0.5515,1.6468 l 5.7012,6.5625 -17.4285,17.4641 V 132.6325 h 147.2985 z m -52.4138,9.6476 c -0.3408,-0.826 -1.1419,-1.3399 -2.0913,-1.3399 h -45.7206 c -1.3373,0 -2.3845,0.943 -2.3845,2.147 v 45.8239 c 0,0.891 0.5856,1.7334 1.4574,2.0961 0.2768,0.1147 0.5732,0.1727 0.8817,0.1727 0.6253,0 1.2253,-0.2423 1.6464,-0.6646 l 45.7208,-45.7934 c 0.6538,-0.6558 0.8421,-1.5917 0.4901,-2.4418 z" /><path
             inkscape:connector-curvature="0"
             id="path58"
             style="fill:#000000;fill-opacity:1;fill-rule:nonzero;stroke:none"
             d="m 230.3127,162.3398 -45.7202,45.7935 c -0.4211,0.4222 -1.0214,0.6645 -1.6464,0.6645 -0.3082,0 -0.6049,-0.058 -0.8817,-0.1727 -0.8718,-0.3627 -1.4574,-1.2047 -1.4574,-2.0961 v -45.8239 c 0,-1.204 1.0472,-2.147 2.3845,-2.147 h 45.7205 c 0.9495,0 1.7506,0.5139 2.0914,1.3399 0.352,0.8501 0.1637,1.786 -0.4907,2.4418 z m -45.2084,0.7267 v 37.991 l 38.136,-37.991 z" /><path
             inkscape:connector-curvature="0"
             id="path60"
             style="fill:#000000;fill-opacity:1;fill-rule:nonzero;stroke:none"
             d="M 307.8217,132.0506 152.804,287.4167 c -0.4152,0.4162 -1.0552,0.6645 -1.7115,0.6645 -0.3188,0 -0.6314,-0.0599 -0.9035,-0.1727 -0.7448,-0.3089 -1.5463,-1.0967 -1.5463,-2.0967 V 130.4461 c 0,-1.3079 1.3766,-2.3217 2.5607,-2.3217 h 155.0179 c 0.899,0 1.7391,0.5739 2.0908,1.4268 0.3516,0.8487 0.1547,1.8532 -0.4904,2.4994 z m -154.3623,0.5822 v 147.702 l 17.4288,-17.4641 -5.7015,-6.5625 c -0.3974,-0.4572 -0.593,-1.0419 -0.5515,-1.6468 0.0419,-0.6046 0.3162,-1.1567 0.7724,-1.5546 0.4117,-0.3595 0.9395,-0.5575 1.4865,-0.5575 0.656,0 1.2788,0.2842 1.7084,0.7786 l 5.4982,6.3269 12.3792,-12.4069 -5.7898,-6.6634 c -0.82,-0.9432 -0.7212,-2.3796 0.2202,-3.2018 0.4128,-0.3598 0.9402,-0.5575 1.4859,-0.5575 0.6547,0 1.2772,0.2839 1.7078,0.7786 l 5.5849,6.4273 12.3791,-12.4073 -5.8774,-6.7627 c -0.8194,-0.9432 -0.7202,-2.3793 0.2209,-3.2014 0.4121,-0.3592 0.9396,-0.5569 1.4856,-0.5569 0.655,0 1.2774,0.2836 1.708,0.7779 l 5.6719,6.5273 12.3794,-12.4073 -5.9637,-6.8633 c -0.3977,-0.4566 -0.5933,-1.0413 -0.5518,-1.6462 0.0416,-0.605 0.3156,-1.1564 0.7721,-1.5553 0.4117,-0.3585 0.9395,-0.5562 1.4856,-0.5562 0.655,0 1.2774,0.2833 1.7083,0.7776 l 5.7585,6.6275 12.3794,-12.4072 -6.0519,-6.9626 c -0.819,-0.9436 -0.7196,-2.38 0.2212,-3.2015 0.4124,-0.3598 0.9399,-0.5575 1.4853,-0.5575 0.655,0 1.2774,0.2836 1.7084,0.7786 l 5.846,6.7278 12.3795,-12.4076 -6.1389,-7.0633 c -0.8194,-0.9442 -0.7206,-2.3805 0.2212,-3.2014 0.4114,-0.3592 0.9392,-0.5562 1.4852,-0.5562 0.6557,0 1.2778,0.2829 1.7078,0.7773 l 5.9337,6.8281 12.3791,-12.4076 -6.2246,-7.1626 c -0.3974,-0.4569 -0.5933,-1.0419 -0.5521,-1.6465 0.0419,-0.6046 0.3155,-1.1564 0.7711,-1.554 0.4114,-0.3604 0.9392,-0.5581 1.4859,-0.5581 0.6557,0 1.2781,0.2829 1.7077,0.7773 l 6.0207,6.928 12.38,-12.4076 -6.3124,-7.2628 c -0.3971,-0.4569 -0.5927,-1.0413 -0.5518,-1.6466 0.0415,-0.6046 0.3149,-1.1563 0.7707,-1.5546 0.4118,-0.3598 0.9396,-0.5581 1.4859,-0.5581 0.6557,0 1.2781,0.2836 1.7071,0.7767 l 6.1066,6.9886 17.5408,-17.6177 H 153.4594 Z" /></g></g><g
         transform="translate(-29.745763,-94.123648)"
         id="g4724"><path
           d="m 759.36151,319.24782 -96.0211,-53.2574 -4.0255,7.2788 96.0211,53.2574 z"
           style="fill:#000000;fill-opacity:1;fill-rule:nonzero;stroke:none"
           id="path126"
           inkscape:connector-curvature="0" /><path
           d="m 629.96671,301.61022 c -1.3948,0 -2.7862,-0.0684 -4.1743,-0.2053 -1.388,-0.1369 -2.766,-0.3416 -4.134,-0.6141 -1.368,-0.2725 -2.7194,-0.6115 -4.0541,-1.017 -1.3347,-0.4055 -2.6464,-0.8754 -3.935,-1.41 -1.2886,-0.5345 -2.5479,-1.131 -3.778,-1.7894 -1.2301,-0.6585 -2.425,-1.3757 -3.5847,-2.1517 -1.1597,-0.776 -2.2787,-1.6071 -3.3569,-2.4932 -1.0782,-0.8861 -2.1104,-1.823 -3.0966,-2.8107 -0.9863,-0.9877 -1.9218,-2.0214 -2.8067,-3.1011 -0.8848,-1.0797 -1.7147,-2.2003 -2.4896,-3.3617 -0.7749,-1.1613 -1.4911,-2.358 -2.1486,-3.5898 -0.6575,-1.2319 -1.2531,-2.493 -1.7869,-3.7835 -0.5337,-1.2905 -1.003,-2.604 -1.4079,-3.9407 -0.4049,-1.3366 -0.7434,-2.6899 -1.0155,-4.0598 -0.2721,-1.37 -0.4765,-2.75 -0.6132,-4.1401 -0.1368,-1.39 -0.2051,-2.7834 -0.2051,-4.1802 0,-1.3968 0.0683,-2.7902 0.2051,-4.1803 0.1367,-1.3901 0.3411,-2.7701 0.6132,-4.14 0.2721,-1.37 0.6106,-2.7232 1.0155,-4.0599 0.4049,-1.3366 0.8742,-2.6502 1.4079,-3.9406 0.5338,-1.2905 1.1294,-2.5517 1.7869,-3.7835 0.6575,-1.2319 1.3737,-2.4285 2.1486,-3.5899 0.7749,-1.1614 1.6048,-2.2819 2.4896,-3.3617 0.8849,-1.0797 1.8204,-2.1134 2.8067,-3.1011 0.9862,-0.9876 2.0184,-1.9245 3.0966,-2.8107 1.0782,-0.8861 2.1972,-1.7171 3.3569,-2.4931 1.1597,-0.7761 2.3546,-1.4933 3.5847,-2.1517 1.2301,-0.6585 2.4894,-1.2549 3.778,-1.7895 1.2886,-0.5345 2.6003,-1.0045 3.935,-1.41 1.3347,-0.4054 2.6861,-0.7444 4.0541,-1.0169 1.368,-0.2725 2.746,-0.4772 4.134,-0.6141 1.3881,-0.1369 2.7795,-0.2054 4.1743,-0.2054 1.3948,0 2.7862,0.0685 4.1743,0.2054 1.388,0.1369 2.7661,0.3416 4.134,0.6141 1.368,0.2725 2.7194,0.6115 4.0541,1.0169 1.3347,0.4055 2.6464,0.8755 3.935,1.41 1.2886,0.5346 2.5479,1.131 3.778,1.7895 1.2301,0.6584 2.425,1.3757 3.5847,2.1517 1.1598,0.776 2.2787,1.607 3.3569,2.4931 1.0782,0.8862 2.1104,1.8231 3.0966,2.8107 0.9863,0.9877 1.9219,2.0214 2.8067,3.1011 0.8848,1.0798 1.7147,2.2003 2.4896,3.3617 0.7749,1.1614 1.4911,2.358 2.1486,3.5899 0.6575,1.2318 1.2531,2.493 1.7869,3.7835 0.5337,1.2904 1.0031,2.604 1.4079,3.9406 0.4049,1.3367 0.7434,2.6899 1.0155,4.0599 0.2721,1.3699 0.4766,2.7499 0.6133,4.14 0.1367,1.3901 0.205,2.7835 0.205,4.1803 0,1.3968 -0.0683,2.7902 -0.205,4.1802 -0.1367,1.3901 -0.3412,2.7701 -0.6133,4.1401 -0.2721,1.3699 -0.6106,2.7232 -1.0155,4.0598 -0.4048,1.3367 -0.8742,2.6502 -1.4079,3.9407 -0.5338,1.2905 -1.1294,2.5516 -1.7869,3.7835 -0.6575,1.2318 -1.3737,2.4285 -2.1486,3.5898 -0.7749,1.1614 -1.6048,2.282 -2.4896,3.3617 -0.8848,1.0797 -1.8204,2.1134 -2.8067,3.1011 -0.9862,0.9877 -2.0184,1.9246 -3.0966,2.8107 -1.0782,0.8861 -2.1971,1.7172 -3.3569,2.4932 -1.1597,0.776 -2.3546,1.4932 -3.5847,2.1517 -1.2301,0.6584 -2.4894,1.2549 -3.778,1.7894 -1.2886,0.5346 -2.6003,1.0045 -3.935,1.41 -1.3347,0.4055 -2.6861,0.7445 -4.0541,1.017 -1.3679,0.2725 -2.746,0.4772 -4.134,0.6141 -1.3881,0.1369 -2.7795,0.2053 -4.1743,0.2053 z"
           style="fill:#00c2cb;fill-opacity:1;fill-rule:nonzero;stroke:none"
           id="path128"
           inkscape:connector-curvature="0" /><path
           d="m 629.49331,215.63152 c -11.4782,0 -22.2863,4.474 -30.3967,12.6132 -8.1275,8.122 -12.5951,18.9457 -12.5951,30.4404 0,11.4947 4.4676,22.3184 12.5951,30.4404 8.1104,8.1392 18.9185,12.6132 30.3967,12.6132 11.4782,0 22.2863,-4.474 30.3967,-12.6132 8.1275,-8.1393 12.5951,-18.9457 12.5951,-30.4404 0,-11.4947 -4.4676,-22.3184 -12.5951,-30.4404 -8.1104,-8.1392 -18.9185,-12.6132 -30.3967,-12.6132 z m 0,83.526 c -10.7909,0 -20.946,-4.2158 -28.5753,-11.856 -7.6292,-7.6402 -11.839,-17.81 -11.839,-28.6164 0,-10.8064 4.2098,-20.9762 11.839,-28.6164 7.6293,-7.6402 17.7844,-11.8561 28.5753,-11.8561 10.7909,0 20.946,4.2159 28.5753,11.8561 7.6292,7.6402 11.839,17.81 11.839,28.6164 0,10.8064 -4.2098,20.9762 -11.839,28.6164 -7.6293,7.6402 -17.7844,11.856 -28.5753,11.856 z"
           style="fill:#000000;fill-opacity:1;fill-rule:nonzero;stroke:none"
           id="path130"
           inkscape:connector-curvature="0" /><path
           d="m 764.75391,369.25342 c -1.1516,0 -2.3004,-0.0566 -3.4464,-0.1696 -1.1461,-0.113 -2.2838,-0.282 -3.4132,-0.507 -1.1295,-0.225 -2.2452,-0.5049 -3.3472,-0.8396 -1.102,-0.3348 -2.1849,-0.7229 -3.2488,-1.1642 -1.0639,-0.4413 -2.1037,-0.9338 -3.1193,-1.4774 -1.0156,-0.5436 -2.0021,-1.1358 -2.9596,-1.7765 -0.9575,-0.6407 -1.8814,-1.3268 -2.7715,-2.0584 -0.8902,-0.7316 -1.7424,-1.5052 -2.5567,-2.3206 -0.8143,-0.8155 -1.5867,-1.6689 -2.3173,-2.5604 -0.7305,-0.8914 -1.4157,-1.8166 -2.0555,-2.7755 -0.6397,-0.9588 -1.2311,-1.9468 -1.7739,-2.9639 -0.5429,-1.017 -1.0346,-2.0583 -1.4753,-3.1237 -0.4407,-1.0655 -0.8282,-2.15 -1.1625,-3.2535 -0.3342,-1.1036 -0.6137,-2.2209 -0.8384,-3.352 -0.2246,-1.1311 -0.3934,-2.2704 -0.5063,-3.4181 -0.1129,-1.1477 -0.1693,-2.2981 -0.1693,-3.4514 0,-1.1532 0.0564,-2.3036 0.1693,-3.4513 0.1129,-1.1477 0.2817,-2.2871 0.5063,-3.4181 0.2247,-1.1311 0.5042,-2.2484 0.8384,-3.352 0.3343,-1.1035 0.7218,-2.188 1.1625,-3.2535 0.4407,-1.0654 0.9324,-2.1067 1.4753,-3.1237 0.5428,-1.0171 1.1342,-2.0051 1.7739,-2.9639 0.6398,-0.9589 1.325,-1.8841 2.0555,-2.7755 0.7306,-0.8915 1.503,-1.7449 2.3173,-2.5604 0.8143,-0.8154 1.6665,-1.589 2.5567,-2.3206 0.8901,-0.7316 1.814,-1.4177 2.7715,-2.0584 0.9575,-0.6407 1.944,-1.2329 2.9596,-1.7765 1.0156,-0.5436 2.0554,-1.0361 3.1193,-1.4774 1.0639,-0.4414 2.1468,-0.8294 3.2488,-1.1642 1.102,-0.3347 2.2177,-0.6146 3.3472,-0.8396 1.1294,-0.225 2.2671,-0.394 3.4132,-0.507 1.146,-0.1131 2.2948,-0.1696 3.4464,-0.1696 1.1515,0 2.3003,0.0565 3.4464,0.1696 1.146,0.113 2.2837,0.282 3.4132,0.507 1.1294,0.225 2.2451,0.5049 3.3471,0.8396 1.102,0.3348 2.1849,0.7228 3.2488,1.1642 1.064,0.4413 2.1037,0.9338 3.1193,1.4774 1.0156,0.5436 2.0022,1.1358 2.9596,1.7765 0.9575,0.6407 1.8814,1.3268 2.7716,2.0584 0.8901,0.7316 1.7424,1.5052 2.5566,2.3206 0.8143,0.8155 1.5867,1.6689 2.3173,2.5604 0.7305,0.8914 1.4157,1.8166 2.0555,2.7755 0.6398,0.9588 1.2311,1.9468 1.7739,2.9639 0.5429,1.017 1.0346,2.0583 1.4753,3.1237 0.4407,1.0655 0.8282,2.15 1.1625,3.2535 0.3343,1.1036 0.6137,2.2209 0.8384,3.352 0.2247,1.131 0.3934,2.2704 0.5063,3.4181 0.1129,1.1477 0.1693,2.2981 0.1693,3.4513 0,1.1533 -0.0564,2.3037 -0.1693,3.4514 -0.1129,1.1477 -0.2816,2.287 -0.5063,3.4181 -0.2247,1.1311 -0.5041,2.2484 -0.8384,3.352 -0.3343,1.1035 -0.7218,2.188 -1.1625,3.2535 -0.4407,1.0654 -0.9324,2.1067 -1.4753,3.1237 -0.5428,1.0171 -1.1341,2.0051 -1.7739,2.9639 -0.6398,0.9589 -1.325,1.8841 -2.0555,2.7755 -0.7306,0.8915 -1.503,1.7449 -2.3173,2.5604 -0.8142,0.8154 -1.6665,1.589 -2.5566,2.3206 -0.8902,0.7316 -1.8141,1.4177 -2.7716,2.0584 -0.9574,0.6407 -1.944,1.2329 -2.9596,1.7765 -1.0156,0.5436 -2.0553,1.0361 -3.1193,1.4774 -1.0639,0.4413 -2.1468,0.8294 -3.2488,1.1642 -1.102,0.3347 -2.2177,0.6146 -3.3471,0.8396 -1.1295,0.225 -2.2672,0.394 -3.4132,0.507 -1.1461,0.113 -2.2949,0.1696 -3.4464,0.1696 z"
           style="fill:#00c2cb;fill-opacity:1;fill-rule:nonzero;stroke:none"
           id="path132"
           inkscape:connector-curvature="0" /><path
           d="m 764.29601,299.41362 c -9.3541,0 -18.1621,3.6461 -24.7717,10.2792 -6.6235,6.619 -10.2643,15.4397 -10.2643,24.8073 0,9.3676 3.6408,18.1883 10.2643,24.8073 6.6096,6.6331 15.4176,10.2792 24.7717,10.2792 9.3542,0 18.1622,-3.6461 24.7717,-10.2792 6.6236,-6.633 10.2644,-15.4397 10.2644,-24.8073 0,-9.3676 -3.6408,-18.1883 -10.2644,-24.8073 -6.6095,-6.6331 -15.4175,-10.2792 -24.7717,-10.2792 z m 0,68.0694 c -8.794,0 -17.0699,-3.4357 -23.2873,-9.6621 -6.2175,-6.2263 -9.6482,-14.5141 -9.6482,-23.3208 0,-8.8067 3.4307,-17.0945 9.6482,-23.3209 6.2174,-6.2263 14.4933,-9.6621 23.2873,-9.6621 8.7941,0 17.07,3.4358 23.2874,9.6621 6.2174,6.2264 9.6482,14.5142 9.6482,23.3209 0,8.8067 -3.4308,17.0945 -9.6482,23.3208 -6.2174,6.2264 -14.4933,9.6621 -23.2874,9.6621 z"
           style="fill:#000000;fill-opacity:1;fill-rule:nonzero;stroke:none"
           id="path134"
           inkscape:connector-curvature="0" /></g><g
         transform="translate(-59.006905,14.017215)"
         id="g4759"><g
           id="g62"><g
             id="g64"
             clip-path="url(#clipPath68)"><path
               d="m 592.0849,142.3491 h -57.3411 c 0,1.6114 -0.0788,3.219 -0.2363,4.8228 -0.1576,1.6037 -0.3933,3.1958 -0.707,4.7763 -0.3136,1.5805 -0.7039,3.1418 -1.1706,4.6839 -0.4667,1.5421 -1.0077,3.0575 -1.623,4.5463 -0.6153,1.4888 -1.3019,2.9438 -2.0599,4.365 -0.7579,1.4212 -1.5835,2.8017 -2.4768,4.1416 -0.8932,1.3399 -1.8499,2.6327 -2.8699,3.8784 -1.0199,1.2456 -2.0984,2.4382 -3.2353,3.5777 -1.1369,1.1395 -2.3268,2.2204 -3.5697,3.2427 -1.2429,1.0223 -2.5328,1.9811 -3.8696,2.8764 -1.3369,0.8953 -2.7143,1.7227 -4.1323,2.4824 -1.418,0.7596 -2.8697,1.4478 -4.3552,2.0645 -1.4854,0.6166 -2.9974,1.1589 -4.5361,1.6267 -1.5386,0.4677 -3.0963,0.8588 -4.6733,1.1732 -1.5769,0.3144 -3.1654,0.5505 -4.7655,0.7085 -1.6001,0.1579 -3.2041,0.2369 -4.8119,0.2369 -1.6078,0 -3.2118,-0.079 -4.8119,-0.2369 -1.6001,-0.158 -3.1886,-0.3941 -4.7656,-0.7085 -1.5769,-0.3144 -3.1347,-0.7055 -4.6733,-1.1732 -1.5386,-0.4678 -3.0506,-1.0101 -4.5361,-1.6267 -1.4854,-0.6167 -2.9372,-1.3049 -4.3551,-2.0645 -1.418,-0.7597 -2.7955,-1.5871 -4.1323,-2.4824 -1.3369,-0.8953 -2.6268,-1.8541 -3.8696,-2.8764 -1.2429,-1.0223 -2.4328,-2.1032 -3.5697,-3.2427 -1.1369,-1.1395 -2.2154,-2.3321 -3.2354,-3.5777 -1.02,-1.2457 -1.9766,-2.5385 -2.8699,-3.8784 -0.8933,-1.3399 -1.7189,-2.7204 -2.4768,-4.1416 -0.7579,-1.4212 -1.4445,-2.8762 -2.0598,-4.365 -0.6153,-1.4888 -1.1563,-3.0042 -1.6231,-4.5463 -0.4667,-1.5421 -0.8569,-3.1034 -1.1706,-4.6839 -0.3136,-1.5805 -0.5493,-3.1726 -0.7069,-4.7763 -0.1576,-1.6038 -0.2364,-3.2114 -0.2364,-4.8228 h -57.341 c 0,1.7458 0.0427,3.4905 0.1282,5.2342 0.0855,1.7437 0.2136,3.4843 0.3843,5.2217 0.1707,1.7374 0.3839,3.4695 0.6395,5.1964 0.2556,1.7269 0.5533,3.4465 0.8931,5.1587 0.3398,1.7123 0.7213,3.4151 1.1446,5.1086 0.4232,1.6935 0.8876,3.3756 1.3933,5.0462 0.5056,1.6706 1.0518,3.3278 1.6387,4.9716 0.5868,1.6437 1.2135,3.272 1.8801,4.8849 0.6665,1.613 1.3722,3.2085 2.1169,4.7867 0.7448,1.5782 1.5277,3.1371 2.3488,4.6767 0.8211,1.5397 1.6794,3.0582 2.5749,4.5557 0.8955,1.4974 1.8271,2.9719 2.7949,4.4235 0.9677,1.4515 1.9704,2.8784 3.008,4.2807 1.0376,1.4022 2.109,2.7781 3.214,4.1276 1.105,1.3495 2.2424,2.6711 3.4122,3.9646 1.1697,1.2936 2.3705,2.5576 3.6021,3.792 1.2317,1.2345 2.4929,2.4379 3.7835,3.6103 1.2906,1.1724 2.6092,2.3124 3.9557,3.4199 1.3465,1.1075 2.7192,2.1813 4.1183,3.2213 1.3991,1.0399 2.8228,2.0449 4.2711,3.0148 1.4483,0.9699 2.9195,1.9036 4.4135,2.8011 1.4941,0.8976 3.0092,1.7578 4.5454,2.5808 1.5362,0.8229 3.0916,1.6076 4.6662,2.3541 1.5746,0.7464 3.1666,1.4536 4.7758,2.1217 1.6093,0.6681 3.234,1.2962 4.874,1.8844 1.6401,0.5881 3.2935,1.1356 4.9604,1.6423 1.6668,0.5068 3.3451,0.9723 5.0348,1.3965 1.6896,0.4242 3.3886,0.8066 5.097,1.1472 1.7084,0.3406 3.4241,0.6389 5.1471,0.8951 1.7231,0.2562 3.4513,0.4698 5.1848,0.6409 1.7335,0.1711 3.4701,0.2995 5.2098,0.3852 1.7398,0.0857 3.4806,0.1285 5.2225,0.1285 1.7418,0 3.4827,-0.0428 5.2224,-0.1285 1.7398,-0.0857 3.4764,-0.2141 5.2099,-0.3852 1.7335,-0.1711 3.4617,-0.3847 5.1847,-0.6409 1.723,-0.2562 3.4387,-0.5545 5.1471,-0.8951 1.7084,-0.3406 3.4074,-0.723 5.0971,-1.1472 1.6897,-0.4242 3.3679,-0.8897 5.0348,-1.3965 1.6669,-0.5067 3.3203,-1.0542 4.9603,-1.6423 1.6401,-0.5882 3.2647,-1.2163 4.874,-1.8844 1.6093,-0.6681 3.2012,-1.3753 4.7759,-2.1217 1.5746,-0.7465 3.13,-1.5312 4.6662,-2.3541 1.5362,-0.823 3.0513,-1.6832 4.5453,-2.5807 1.4941,-0.8976 2.9652,-1.8313 4.4135,-2.8012 1.4483,-0.9699 2.872,-1.9749 4.2711,-3.0148 1.3991,-1.04 2.7719,-2.1137 4.1183,-3.2213 1.3465,-1.1075 2.6651,-2.2475 3.9557,-3.4199 1.2907,-1.1724 2.5518,-2.3758 3.7835,-3.6103 1.2317,-1.2344 2.4324,-2.4984 3.6022,-3.792 1.1698,-1.2935 2.3072,-2.6151 3.4122,-3.9646 1.105,-1.3495 2.1763,-2.7254 3.2139,-4.1276 1.0377,-1.4023 2.0404,-2.8292 3.0081,-4.2808 0.9677,-1.4515 1.8993,-2.926 2.7948,-4.4235 0.8955,-1.4974 1.7538,-3.0159 2.5749,-4.5556 0.8211,-1.5396 1.6041,-3.0985 2.3488,-4.6767 0.7447,-1.5782 1.4504,-3.1737 2.117,-4.7867 0.6666,-1.6129 1.2933,-3.2412 1.8801,-4.8849 0.5868,-1.6438 1.1331,-3.301 1.6387,-4.9716 0.5056,-1.6706 0.9701,-3.3527 1.3933,-5.0461 0.4232,-1.6935 0.8048,-3.3964 1.1446,-5.1086 0.3398,-1.7123 0.6375,-3.4319 0.8931,-5.1588 0.2556,-1.7269 0.4687,-3.459 0.6395,-5.1964 0.1707,-1.7374 0.2988,-3.478 0.3843,-5.2217 0.0854,-1.7437 0.1282,-3.4884 0.1282,-5.2342 z"
               style="fill:#00568c;fill-opacity:1;fill-rule:nonzero;stroke:none"
               id="path70"
               inkscape:connector-curvature="0" /><path
               d="m 534.7438,142.3491 h 57.3411 c 0,1.7458 -0.0428,3.4905 -0.1282,5.2342 -0.0855,1.7437 -0.2136,3.4843 -0.3844,5.2217 -0.1707,1.7374 -0.3839,3.4695 -0.6394,5.1964 -0.2556,1.7269 -0.5533,3.4465 -0.8931,5.1587 -0.3399,1.7123 -0.7214,3.4151 -1.1446,5.1086 -0.4232,1.6935 -0.8877,3.3756 -1.3933,5.0462 -0.5057,1.6706 -1.0519,3.3278 -1.6387,4.9716 -0.5868,1.6437 -1.2135,3.272 -1.8801,4.8849 -0.6666,1.613 -1.3723,3.2085 -2.117,4.7867 -0.7447,1.5782 -1.5277,3.1371 -2.3488,4.6767 -0.8211,1.5397 -1.6794,3.0582 -2.5749,4.5557 -0.8955,1.4974 -1.8271,2.9719 -2.7948,4.4235 -0.9677,1.4515 -1.9704,2.8784 -3.0081,4.2807 -1.0376,1.4022 -2.1089,2.7781 -3.2139,4.1276 -1.105,1.3495 -2.2424,2.6711 -3.4122,3.9646 -1.1698,1.2936 -2.3705,2.5576 -3.6022,3.792 -1.2317,1.2345 -2.4928,2.4379 -3.7835,3.6103 -1.2906,1.1724 -2.6091,2.3124 -3.9556,3.4199 -1.3465,1.1075 -2.7193,2.1813 -4.1184,3.2213 -1.3991,1.0399 -2.8228,2.0449 -4.2711,3.0148 -1.4483,0.9699 -2.9194,1.9036 -4.4135,2.8011 -1.494,0.8976 -3.0091,1.7578 -4.5453,2.5808 -1.5362,0.8229 -3.0916,1.6076 -4.6662,2.3541 -1.5747,0.7464 -3.1666,1.4536 -4.7759,2.1217 -1.6093,0.6681 -3.2339,1.2962 -4.874,1.8844 -1.64,0.5881 -3.2935,1.1356 -4.9603,1.6423 -1.6669,0.5068 -3.3451,0.9723 -5.0348,1.3965 -1.6897,0.4242 -3.3887,0.8066 -5.0971,1.1472 -1.7084,0.3406 -3.4241,0.6389 -5.1471,0.8951 -1.723,0.2562 -3.4512,0.4698 -5.1847,0.6409 -1.7335,0.1711 -3.4701,0.2995 -5.2099,0.3852 -1.7397,0.0857 -3.4806,0.1285 -5.2224,0.1285 v -57.4706 c 1.607,-0.003 3.2101,-0.0845 4.8091,-0.2449 1.5991,-0.1604 3.1865,-0.3988 4.7622,-0.7152 1.5758,-0.3163 3.1323,-0.7092 4.6696,-1.1785 1.5373,-0.4692 3.0481,-1.0127 4.5322,-1.6305 1.4842,-0.6177 2.9346,-1.3066 4.3514,-2.0669 1.4168,-0.7602 2.7931,-1.588 4.1289,-2.4835 1.3358,-0.8954 2.6247,-1.8542 3.8667,-2.8762 1.242,-1.0221 2.4312,-2.1026 3.5676,-3.2416 1.1363,-1.1389 2.2144,-2.3307 3.2342,-3.5756 1.0198,-1.2448 1.9764,-2.5367 2.8698,-3.8755 0.8934,-1.3388 1.7194,-2.7182 2.4779,-4.1382 0.7585,-1.4199 1.4459,-2.8737 2.0623,-4.3612 0.6163,-1.4875 1.1585,-3.0016 1.6268,-4.5424 0.4682,-1.5408 0.8601,-3.1009 1.1758,-4.6802 0.3156,-1.5793 0.5535,-3.1702 0.7135,-4.7729 0.1601,-1.6027 0.2415,-3.2093 0.2444,-4.82 z"
               style="fill:#00c2cb;fill-opacity:1;fill-rule:nonzero;stroke:none"
               id="path72"
               inkscape:connector-curvature="0" /><path
               d="m 497.1373,136.482 h -17.7389 v 17.5568 l 26.0762,19.1568 c 0.3601,0.2707 0.7412,0.5071 1.1436,0.7093 0.4022,0.2023 0.8192,0.367 1.251,0.4944 0.4317,0.1274 0.8713,0.2153 1.3187,0.2638 0.4475,0.0485 0.8957,0.0567 1.3446,0.0248 0.4489,-0.032 0.8914,-0.1037 1.3275,-0.2151 0.4362,-0.1114 0.8589,-0.2608 1.2683,-0.448 0.4095,-0.1873 0.799,-0.4096 1.1687,-0.6668 0.3698,-0.2572 0.7137,-0.5453 1.032,-0.8642 0.3182,-0.319 0.6056,-0.6638 0.8623,-1.0343 0.2566,-0.3705 0.4784,-0.761 0.6652,-1.1713 0.1869,-0.4104 0.3359,-0.8341 0.4471,-1.2712 0.1111,-0.4371 0.1826,-0.8806 0.2145,-1.3306 0.0319,-0.4499 0.0237,-0.8991 -0.0246,-1.3476 -0.0484,-0.4484 -0.1361,-0.889 -0.2632,-1.3217 -0.1271,-0.4327 -0.2915,-0.8507 -0.4933,-1.2539 -0.2018,-0.4032 -0.4377,-0.7852 -0.7077,-1.1461 z"
               style="fill:#00c2cb;fill-opacity:1;fill-rule:nonzero;stroke:none"
               id="path74"
               inkscape:connector-curvature="0" /><path
               d="m 485.6514,249.023 v -57.4706 c 4.8669,0.004 9.6278,-0.7054 14.2828,-2.1293 4.655,-1.4239 9,-3.4995 13.0351,-6.2268 l 40.8882,40.9361 c -4.7434,3.9887 -9.7956,7.5344 -15.1565,10.6371 -5.361,3.1026 -10.9493,5.7151 -16.765,7.8374 -5.8157,2.1223 -11.7704,3.7223 -17.8641,4.7998 -6.0937,1.0775 -12.2339,1.6163 -18.4205,1.6163 z"
               style="fill:#00c2cb;fill-opacity:1;fill-rule:nonzero;stroke:none"
               id="path76"
               inkscape:connector-curvature="0" /><path
               d="m 485.6514,249.023 c -5.6978,0.002 -11.3588,-0.4555 -16.9829,-1.3712 -5.6241,-0.9157 -11.1383,-2.2782 -16.5427,-4.0875 -5.4043,-1.8093 -10.6285,-4.0419 -15.6727,-6.6977 -5.0441,-2.6559 -9.8427,-5.7005 -14.3957,-9.1339 l 41.4203,-41.5584 c 1.7075,0.8845 3.4615,1.664 5.2618,2.3386 1.8004,0.6746 3.6344,1.2395 5.5021,1.6946 1.8676,0.4551 3.7557,0.7973 5.6641,1.0265 1.9084,0.2292 3.8236,0.3438 5.7457,0.3438 1.9221,0 3.8373,-0.1146 5.7457,-0.3438 1.9084,-0.2292 3.7965,-0.5714 5.6641,-1.0265 1.8677,-0.4551 3.7017,-1.02 5.502,-1.6946 1.8004,-0.6746 3.5543,-1.4541 5.2618,-2.3386 l 41.4647,41.5584 c -4.5559,3.4357 -9.3578,6.482 -14.4055,9.1391 -5.0478,2.657 -10.2757,4.8902 -15.684,6.6995 -5.4082,1.8094 -10.9264,3.1713 -16.5544,4.0859 -5.6281,0.9145 -11.2929,1.3698 -16.9944,1.3658 z"
               style="fill:#03989e;fill-opacity:1;fill-rule:nonzero;stroke:none"
               id="path78"
               inkscape:connector-curvature="0" /><path
               d="m 500.0199,142.5269 c 0,-0.9456 -0.092,-1.8821 -0.2761,-2.8095 -0.184,-0.9274 -0.4566,-1.8279 -0.8176,-2.7015 -0.3611,-0.8736 -0.8037,-1.7035 -1.3278,-2.4897 -0.5242,-0.7863 -1.1198,-1.5137 -1.7869,-2.1823 -0.6672,-0.6687 -1.3929,-1.2656 -2.1774,-1.791 -0.7845,-0.5253 -1.6125,-0.9689 -2.4841,-1.3308 -0.8717,-0.3618 -1.7702,-0.635 -2.6955,-0.8195 -0.9253,-0.1844 -1.8597,-0.2767 -2.8031,-0.2767 -0.9435,0 -1.8778,0.0923 -2.8032,0.2767 -0.9253,0.1845 -1.8238,0.4577 -2.6954,0.8195 -0.8717,0.3619 -1.6997,0.8055 -2.4841,1.3308 -0.7845,0.5254 -1.5103,1.1223 -2.1774,1.791 -0.6671,0.6686 -1.2627,1.396 -1.7869,2.1823 -0.5242,0.7862 -0.9668,1.6161 -1.3278,2.4897 -0.361,0.8736 -0.6336,1.7741 -0.8177,2.7015 -0.184,0.9274 -0.276,1.8639 -0.276,2.8095 0,0.9456 0.092,1.8821 0.276,2.8095 0.1841,0.9274 0.4567,1.8279 0.8177,2.7015 0.361,0.8736 0.8036,1.7035 1.3278,2.4898 0.5241,0.7862 1.1198,1.5136 1.7869,2.1822 0.6671,0.6687 1.3929,1.2657 2.1774,1.791 0.7844,0.5253 1.6124,0.9689 2.4841,1.3308 0.8716,0.3618 1.7701,0.635 2.6954,0.8195 0.9254,0.1844 1.8597,0.2767 2.8032,0.2767 0.9434,0 1.8778,-0.0923 2.8031,-0.2767 0.9253,-0.1845 1.8238,-0.4577 2.6955,-0.8195 0.8716,-0.3619 1.6996,-0.8055 2.4841,-1.3308 0.7845,-0.5253 1.5102,-1.1223 2.1774,-1.791 0.6671,-0.6686 1.2627,-1.396 1.7869,-2.1822 0.5241,-0.7863 0.9667,-1.6162 1.3278,-2.4898 0.361,-0.8736 0.6336,-1.7741 0.8176,-2.7015 0.1841,-0.9274 0.2761,-1.8639 0.2761,-2.8095 z"
               style="fill:#00c2cb;fill-opacity:1;fill-rule:nonzero;stroke:none"
               id="path80"
               inkscape:connector-curvature="0" /><path
               d="m 578.559,177.1515 c 0,-0.7119 -0.0348,-1.422 -0.1045,-2.1304 -0.0696,-0.7084 -0.1737,-1.4117 -0.3123,-2.1099 -0.1385,-0.6981 -0.3109,-1.3878 -0.517,-2.069 -0.2062,-0.6812 -0.4452,-1.3506 -0.717,-2.0083 -0.2718,-0.6576 -0.5751,-1.3004 -0.9099,-1.9282 -0.3348,-0.6277 -0.6995,-1.2376 -1.0941,-1.8294 -0.3946,-0.5919 -0.8171,-1.163 -1.2677,-1.7133 -0.4506,-0.5502 -0.927,-1.077 -1.4292,-1.5804 -0.5022,-0.5033 -1.0278,-0.9808 -1.5768,-1.4324 -0.549,-0.4516 -1.1188,-0.8751 -1.7094,-1.2706 -0.5905,-0.3954 -1.199,-0.761 -1.8253,-1.0965 -0.6264,-0.3356 -1.2677,-0.6396 -1.9239,-0.912 -0.6561,-0.2724 -1.324,-0.5119 -2.0037,-0.7186 -0.6796,-0.2066 -1.3678,-0.3793 -2.0644,-0.5182 -0.6966,-0.1389 -1.3983,-0.2432 -2.1051,-0.313 -0.7068,-0.0698 -1.4153,-0.1046 -2.1256,-0.1046 -0.7102,0 -1.4187,0.0348 -2.1255,0.1046 -0.7069,0.0698 -1.4086,0.1741 -2.1052,0.313 -0.6965,0.1389 -1.3847,0.3116 -2.0643,0.5182 -0.6797,0.2067 -1.3476,0.4462 -2.0038,0.7186 -0.6562,0.2724 -1.2974,0.5764 -1.9238,0.912 -0.6264,0.3355 -1.2348,0.7011 -1.8254,1.0965 -0.5905,0.3955 -1.1603,0.819 -1.7093,1.2706 -0.549,0.4516 -1.0746,0.9291 -1.5769,1.4324 -0.5022,0.5034 -0.9786,1.0302 -1.4291,1.5804 -0.4506,0.5503 -0.8732,1.1214 -1.2678,1.7132 -0.3946,0.5919 -0.7593,1.2017 -1.0941,1.8295 -0.3348,0.6278 -0.6381,1.2705 -0.9099,1.9282 -0.2718,0.6577 -0.5107,1.3271 -0.7169,2.0083 -0.2062,0.6812 -0.3786,1.3708 -0.5171,2.069 -0.1386,0.6982 -0.2426,1.4015 -0.3123,2.1099 -0.0696,0.7084 -0.1044,1.4185 -0.1044,2.1304 0,0.7118 0.0348,1.4219 0.1045,2.1304 0.0696,0.7084 0.1736,1.4117 0.3122,2.1098 0.1385,0.6982 0.3109,1.3879 0.5171,2.0691 0.2062,0.6811 0.4451,1.3506 0.7169,2.0082 0.2718,0.6577 0.5751,1.3004 0.91,1.9282 0.3347,0.6278 0.6994,1.2376 1.094,1.8295 0.3946,0.5919 0.8172,1.1629 1.2678,1.7132 0.4505,0.5502 0.9269,1.0771 1.4291,1.5804 0.5023,0.5033 1.0279,0.9808 1.5769,1.4324 0.549,0.4516 1.1188,0.8751 1.7093,1.2706 0.5906,0.3955 1.199,0.761 1.8254,1.0965 0.6264,0.3356 1.2676,0.6396 1.9238,0.912 0.6562,0.2724 1.3241,0.5119 2.0038,0.7186 0.6796,0.2066 1.3677,0.3794 2.0643,0.5182 0.6966,0.1389 1.3983,0.2432 2.1051,0.313 0.7069,0.0698 1.4154,0.1047 2.1256,0.1047 0.7103,0 1.4188,-0.0349 2.1256,-0.1047 0.7069,-0.0698 1.4085,-0.1741 2.1051,-0.313 0.6966,-0.1388 1.3848,-0.3116 2.0644,-0.5182 0.6797,-0.2067 1.3476,-0.4462 2.0037,-0.7186 0.6562,-0.2724 1.2975,-0.5764 1.9239,-0.9119 0.6263,-0.3356 1.2348,-0.7011 1.8253,-1.0966 0.5906,-0.3955 1.1604,-0.819 1.7094,-1.2706 0.549,-0.4516 1.0746,-0.9291 1.5768,-1.4324 0.5022,-0.5033 0.9786,-1.0302 1.4292,-1.5804 0.4506,-0.5503 0.8731,-1.1213 1.2677,-1.7132 0.3946,-0.5919 0.7593,-1.2017 1.0941,-1.8295 0.3348,-0.6278 0.6381,-1.2705 0.9099,-1.9282 0.2718,-0.6576 0.5108,-1.3271 0.717,-2.0082 0.2061,-0.6812 0.3785,-1.3709 0.517,-2.0691 0.1386,-0.6981 0.2427,-1.4014 0.3123,-2.1098 0.0697,-0.7085 0.1045,-1.4186 0.1045,-2.1304 z"
               style="fill:#00c2cb;fill-opacity:1;fill-rule:nonzero;stroke:none"
               id="path82"
               inkscape:connector-curvature="0" /><path
               d="m 552.1723,182.0407 c 0,-1.5557 -0.8426,-2.8002 -1.9513,-2.8002 -1.1086,0 -1.9512,1.2445 -1.9512,2.8002 0,1.5556 0.8869,2.8446 1.9512,2.8446 1.0644,0 1.9513,-1.289 1.9513,-2.8446 z"
               style="fill:#000000;fill-opacity:1;fill-rule:nonzero;stroke:none"
               id="path84"
               inkscape:connector-curvature="0" /><path
               d="m 565.4765,182.0407 c 0,-1.5557 -0.8426,-2.8002 -1.9513,-2.8002 -1.1086,0 -1.9512,1.2445 -1.9512,2.8002 0,1.5556 0.8869,2.8446 1.9512,2.8446 1.0644,0 1.9513,-1.289 1.9513,-2.8446 z"
               style="fill:#000000;fill-opacity:1;fill-rule:nonzero;stroke:none"
               id="path86"
               inkscape:connector-curvature="0" /><path
               d="m 549.3341,175.9069 c -0.1483,-0.004 -0.2889,-0.039 -0.4219,-0.1047 -0.1331,-0.0657 -0.2465,-0.1561 -0.3401,-0.2714 -0.0937,-0.1152 -0.1592,-0.2447 -0.1965,-0.3886 -0.0373,-0.1439 -0.043,-0.289 -0.0171,-0.4353 0.0734,-0.5088 0.1913,-1.007 0.3537,-1.4947 0.1624,-0.4876 0.3666,-0.957 0.6128,-1.408 0.2461,-0.4511 0.5302,-0.8766 0.8523,-1.2768 0.322,-0.4001 0.677,-0.7684 1.0648,-1.1048 0.3878,-0.3365 0.8023,-0.6358 1.2435,-0.898 0.4412,-0.2622 0.9022,-0.483 1.3828,-0.6626 0.4806,-0.1795 0.9733,-0.3149 1.4781,-0.4061 0.5048,-0.0913 1.0137,-0.1369 1.5266,-0.1369 0.513,0 1.0218,0.0456 1.5266,0.1369 0.5048,0.0912 0.9975,0.2266 1.4782,0.4061 0.4806,0.1796 0.9415,0.4004 1.3827,0.6626 0.4413,0.2622 0.8558,0.5615 1.2436,0.898 0.3878,0.3364 0.7427,0.7047 1.0648,1.1048 0.3221,0.4002 0.6062,0.8257 0.8523,1.2768 0.2462,0.451 0.4504,0.9204 0.6127,1.408 0.1624,0.4877 0.2803,0.9859 0.3538,1.4947 0.0188,0.1488 0.007,0.295 -0.036,0.4388 -0.0427,0.1437 -0.1126,0.2727 -0.2097,0.3868 -0.097,0.1142 -0.2129,0.2039 -0.3477,0.2691 -0.1348,0.0652 -0.277,0.1003 -0.4266,0.1053 z"
               style="fill:#000000;fill-opacity:1;fill-rule:nonzero;stroke:none"
               id="path88"
               inkscape:connector-curvature="0" /><path
               d="m 507.3372,220.1766 c 0,-0.7118 -0.0348,-1.422 -0.1044,-2.1304 -0.0696,-0.7084 -0.1737,-1.4117 -0.3123,-2.1099 -0.1386,-0.6981 -0.3109,-1.3878 -0.5171,-2.069 -0.2062,-0.6812 -0.4452,-1.3506 -0.717,-2.0082 -0.2718,-0.6577 -0.575,-1.3004 -0.9099,-1.9282 -0.3348,-0.6278 -0.6994,-1.2376 -1.094,-1.8295 -0.3946,-0.5919 -0.8172,-1.1629 -1.2678,-1.7132 -0.4505,-0.5503 -0.9269,-1.0771 -1.4291,-1.5804 -0.5023,-0.5034 -1.0279,-0.9808 -1.5769,-1.4324 -0.549,-0.4516 -1.1188,-0.8751 -1.7094,-1.2706 -0.5905,-0.3955 -1.1989,-0.761 -1.8253,-1.0966 -0.6264,-0.3355 -1.2677,-0.6395 -1.9238,-0.9119 -0.6562,-0.2724 -1.3241,-0.512 -2.0038,-0.7186 -0.6796,-0.2066 -1.3677,-0.3794 -2.0643,-0.5183 -0.6966,-0.1388 -1.3983,-0.2432 -2.1051,-0.3129 -0.7069,-0.0698 -1.4154,-0.1047 -2.1256,-0.1047 -0.7102,0 -1.4188,0.0349 -2.1256,0.1047 -0.7068,0.0697 -1.4085,0.1741 -2.1051,0.3129 -0.6966,0.1389 -1.3847,0.3117 -2.0644,0.5183 -0.6796,0.2066 -1.3476,0.4462 -2.0037,0.7186 -0.6562,0.2724 -1.2975,0.5764 -1.9239,0.9119 -0.6263,0.3356 -1.2348,0.7011 -1.8253,1.0966 -0.5906,0.3955 -1.1603,0.819 -1.7094,1.2706 -0.549,0.4516 -1.0746,0.929 -1.5768,1.4324 -0.5022,0.5033 -0.9786,1.0301 -1.4292,1.5804 -0.4506,0.5502 -0.8732,1.1213 -1.2677,1.7132 -0.3946,0.5919 -0.7593,1.2017 -1.0941,1.8295 -0.3348,0.6278 -0.6381,1.2705 -0.9099,1.9282 -0.2718,0.6576 -0.5108,1.327 -0.717,2.0082 -0.2061,0.6812 -0.3785,1.3709 -0.5171,2.0691 -0.1385,0.6981 -0.2426,1.4014 -0.3122,2.1098 -0.0696,0.7084 -0.1044,1.4186 -0.1044,2.1304 0,0.7118 0.0348,1.422 0.1044,2.1304 0.0696,0.7084 0.1737,1.4117 0.3122,2.1099 0.1386,0.6981 0.311,1.3878 0.5171,2.069 0.2062,0.6812 0.4452,1.3506 0.717,2.0083 0.2718,0.6576 0.5751,1.3003 0.9099,1.9281 0.3348,0.6278 0.6995,1.2376 1.0941,1.8295 0.3945,0.5919 0.8171,1.163 1.2677,1.7132 0.4506,0.5503 0.927,1.0771 1.4292,1.5804 0.5022,0.5034 1.0278,0.9808 1.5768,1.4324 0.5491,0.4516 1.1188,0.8752 1.7094,1.2706 0.5905,0.3955 1.199,0.761 1.8254,1.0966 0.6263,0.3356 1.2676,0.6395 1.9238,0.9119 0.6561,0.2725 1.3241,0.512 2.0037,0.7186 0.6797,0.2066 1.3678,0.3794 2.0644,0.5183 0.6966,0.1388 1.3983,0.2432 2.1051,0.3129 0.7068,0.0698 1.4154,0.1047 2.1256,0.1047 0.7102,0 1.4187,-0.0349 2.1256,-0.1047 0.7068,-0.0697 1.4085,-0.1741 2.1051,-0.3129 0.6966,-0.1389 1.3847,-0.3117 2.0643,-0.5183 0.6797,-0.2066 1.3476,-0.4461 2.0038,-0.7186 0.6561,-0.2724 1.2974,-0.5764 1.9238,-0.9119 0.6264,-0.3356 1.2348,-0.7011 1.8253,-1.0966 0.5906,-0.3954 1.1604,-0.819 1.7094,-1.2706 0.549,-0.4516 1.0746,-0.929 1.5769,-1.4324 0.5022,-0.5033 0.9786,-1.0301 1.4291,-1.5804 0.4506,-0.5502 0.8732,-1.1213 1.2678,-1.7132 0.3946,-0.5919 0.7592,-1.2017 1.094,-1.8295 0.3349,-0.6278 0.6381,-1.2705 0.9099,-1.9281 0.2718,-0.6577 0.5108,-1.3271 0.717,-2.0083 0.2062,-0.6812 0.3785,-1.3709 0.5171,-2.069 0.1386,-0.6982 0.2427,-1.4015 0.3123,-2.1099 0.0696,-0.7084 0.1044,-1.4186 0.1044,-2.1304 z"
               style="fill:#03989e;fill-opacity:1;fill-rule:nonzero;stroke:none"
               id="path90"
               inkscape:connector-curvature="0" /><path
               d="m 481.2167,225.0658 c 0,-1.5556 -0.887,-2.8002 -1.9957,-2.8002 -1.1087,0 -1.9513,1.2446 -1.9513,2.8002 0,1.5557 0.887,2.8446 1.9513,2.8446 1.0644,0 1.9957,-1.2889 1.9957,-2.8446 z"
               style="fill:#000000;fill-opacity:1;fill-rule:nonzero;stroke:none"
               id="path92"
               inkscape:connector-curvature="0" /><path
               d="m 494.2548,225.0658 c 0,-1.5556 -0.887,-2.8002 -1.9513,-2.8002 -1.0643,0 -1.9956,1.2446 -1.9956,2.8002 0,1.5557 0.8869,2.8446 1.9956,2.8446 1.1087,0 1.9513,-1.2889 1.9513,-2.8446 z"
               style="fill:#000000;fill-opacity:1;fill-rule:nonzero;stroke:none"
               id="path94"
               inkscape:connector-curvature="0" /><path
               d="m 492.1261,212.5761 h -12.9494 c -0.2705,0 -0.5308,0.0519 -0.7807,0.1556 -0.2499,0.1038 -0.4705,0.2515 -0.6618,0.4432 -0.1913,0.1918 -0.3387,0.4129 -0.4422,0.6633 -0.1036,0.2505 -0.1553,0.5113 -0.1553,0.7825 -0.006,0.2729 0.0415,0.5361 0.1429,0.7895 0.1015,0.2534 0.2485,0.4767 0.4411,0.6697 0.1926,0.1931 0.4154,0.3404 0.6682,0.4421 0.2528,0.1016 0.5154,0.1494 0.7878,0.1432 h 12.9494 c 0.2723,0.006 0.5349,-0.0416 0.7878,-0.1432 0.2528,-0.1017 0.4755,-0.249 0.6682,-0.4421 0.1926,-0.193 0.3396,-0.4163 0.441,-0.6697 0.1014,-0.2534 0.1491,-0.5166 0.143,-0.7895 0,-0.2712 -0.0518,-0.532 -0.1553,-0.7825 -0.1036,-0.2504 -0.251,-0.4715 -0.4422,-0.6633 -0.1913,-0.1917 -0.4119,-0.3394 -0.6619,-0.4432 -0.2499,-0.1037 -0.5101,-0.1556 -0.7806,-0.1556 z"
               style="fill:#000000;fill-opacity:1;fill-rule:nonzero;stroke:none"
               id="path96"
               inkscape:connector-curvature="0" /><path
               d="m 441.0824,179.2405 c 0,-0.7118 -0.0348,-1.422 -0.1045,-2.1304 -0.0696,-0.7084 -0.1737,-1.4117 -0.3122,-2.1098 -0.1386,-0.6982 -0.311,-1.3879 -0.5171,-2.0691 -0.2062,-0.6812 -0.4452,-1.3506 -0.717,-2.0082 -0.2718,-0.6577 -0.5751,-1.3004 -0.9099,-1.9282 -0.3348,-0.6278 -0.6995,-1.2376 -1.0941,-1.8295 -0.3946,-0.5919 -0.8171,-1.1629 -1.2677,-1.7132 -0.4506,-0.5503 -0.927,-1.0771 -1.4292,-1.5804 -0.5022,-0.5034 -1.0278,-0.9808 -1.5768,-1.4324 -0.549,-0.4516 -1.1188,-0.8751 -1.7094,-1.2706 -0.5905,-0.3955 -1.199,-0.761 -1.8253,-1.0966 -0.6264,-0.3355 -1.2677,-0.6395 -1.9239,-0.9119 -0.6561,-0.2724 -1.3241,-0.512 -2.0037,-0.7186 -0.6797,-0.2066 -1.3678,-0.3794 -2.0644,-0.5183 -0.6966,-0.1388 -1.3983,-0.2432 -2.1051,-0.313 -0.7068,-0.0697 -1.4153,-0.1046 -2.1256,-0.1046 -0.7102,0 -1.4187,0.0349 -2.1255,0.1046 -0.7069,0.0698 -1.4086,0.1742 -2.1052,0.313 -0.6965,0.1389 -1.3847,0.3117 -2.0643,0.5183 -0.6797,0.2066 -1.3476,0.4462 -2.0038,0.7186 -0.6561,0.2724 -1.2974,0.5764 -1.9238,0.9119 -0.6264,0.3356 -1.2348,0.7011 -1.8254,1.0966 -0.5905,0.3954 -1.1603,0.819 -1.7093,1.2706 -0.549,0.4516 -1.0746,0.929 -1.5769,1.4324 -0.5022,0.5033 -0.9786,1.0301 -1.4291,1.5804 -0.4506,0.5503 -0.8732,1.1213 -1.2678,1.7132 -0.3946,0.5919 -0.7593,1.2017 -1.0941,1.8295 -0.3348,0.6278 -0.6381,1.2705 -0.9099,1.9282 -0.2718,0.6576 -0.5107,1.327 -0.7169,2.0082 -0.2062,0.6812 -0.3785,1.3709 -0.5171,2.0691 -0.1386,0.6981 -0.2427,1.4014 -0.3123,2.1098 -0.0696,0.7084 -0.1044,1.4186 -0.1044,2.1304 0,0.7118 0.0348,1.422 0.1044,2.1304 0.0696,0.7084 0.1737,1.4117 0.3123,2.1099 0.1386,0.6981 0.3109,1.3878 0.5171,2.069 0.2062,0.6812 0.4451,1.3506 0.7169,2.0083 0.2718,0.6576 0.5751,1.3003 0.9099,1.9281 0.3348,0.6278 0.6995,1.2376 1.0941,1.8295 0.3946,0.5919 0.8172,1.1629 1.2678,1.7132 0.4505,0.5503 0.9269,1.0771 1.4291,1.5804 0.5023,0.5034 1.0279,0.9808 1.5769,1.4324 0.549,0.4516 1.1188,0.8751 1.7093,1.2706 0.5906,0.3955 1.199,0.761 1.8254,1.0966 0.6264,0.3355 1.2677,0.6395 1.9238,0.9119 0.6562,0.2725 1.3241,0.512 2.0038,0.7186 0.6796,0.2066 1.3678,0.3794 2.0643,0.5183 0.6966,0.1388 1.3983,0.2432 2.1052,0.3129 0.7068,0.0698 1.4153,0.1047 2.1255,0.1047 0.7103,0 1.4188,-0.0349 2.1256,-0.1047 0.7068,-0.0697 1.4085,-0.1741 2.1051,-0.3129 0.6966,-0.1389 1.3847,-0.3117 2.0644,-0.5183 0.6796,-0.2066 1.3476,-0.4461 2.0037,-0.7186 0.6562,-0.2724 1.2975,-0.5764 1.9239,-0.9119 0.6263,-0.3356 1.2348,-0.7011 1.8253,-1.0966 0.5906,-0.3955 1.1604,-0.819 1.7094,-1.2706 0.549,-0.4516 1.0746,-0.929 1.5768,-1.4324 0.5022,-0.5033 0.9786,-1.0301 1.4292,-1.5804 0.4506,-0.5503 0.8731,-1.1213 1.2677,-1.7132 0.3946,-0.5919 0.7593,-1.2017 1.0941,-1.8295 0.3348,-0.6278 0.6381,-1.2705 0.9099,-1.9282 0.2718,-0.6576 0.5108,-1.327 0.717,-2.0082 0.2062,-0.6812 0.3785,-1.3709 0.5171,-2.069 0.1385,-0.6982 0.2426,-1.4015 0.3122,-2.1099 0.0697,-0.7084 0.1045,-1.4186 0.1045,-2.1304 z"
               style="fill:#00568c;fill-opacity:1;fill-rule:nonzero;stroke:none"
               id="path98"
               inkscape:connector-curvature="0" /><path
               d="m 414.6957,184.1297 c 0,-1.5556 -0.8869,-2.8002 -1.9513,-2.8002 -1.0643,0 -1.9512,1.2445 -1.9512,2.8002 0,1.5557 0.8426,2.8446 1.9512,2.8446 1.1087,0 1.9513,-1.2889 1.9513,-2.8446 z"
               style="fill:#000000;fill-opacity:1;fill-rule:nonzero;stroke:none"
               id="path100"
               inkscape:connector-curvature="0" /><path
               d="m 427.9999,184.1297 c 0,-1.5556 -0.8426,-2.8002 -1.9513,-2.8002 -1.1087,0 -1.9513,1.2445 -1.9513,2.8002 0,1.5557 0.887,2.8446 1.9513,2.8446 1.0644,0 1.9513,-1.2889 1.9513,-2.8446 z"
               style="fill:#000000;fill-opacity:1;fill-rule:nonzero;stroke:none"
               id="path102"
               inkscape:connector-curvature="0" /><path
               d="m 426.9356,169.3732 c 0.1482,0.004 0.2889,0.0391 0.4219,0.1047 0.133,0.0657 0.2464,0.1562 0.3401,0.2714 0.0937,0.1152 0.1591,0.2448 0.1964,0.3886 0.0373,0.1439 0.0431,0.289 0.0172,0.4353 -0.0734,0.5088 -0.1914,1.0071 -0.3537,1.4947 -0.1624,0.4877 -0.3667,0.957 -0.6128,1.408 -0.2461,0.4511 -0.5302,0.8767 -0.8523,1.2768 -0.3221,0.4001 -0.677,0.7684 -1.0648,1.1048 -0.3878,0.3365 -0.8023,0.6359 -1.2436,0.898 -0.4412,0.2622 -0.9021,0.483 -1.3827,0.6626 -0.4807,0.1796 -0.9734,0.3149 -1.4782,0.4062 -0.5048,0.0912 -1.0136,0.1368 -1.5266,0.1368 -0.5129,0 -1.0218,-0.0456 -1.5266,-0.1368 -0.5047,-0.0913 -0.9975,-0.2266 -1.4781,-0.4062 -0.4806,-0.1796 -0.9416,-0.4004 -1.3828,-0.6626 -0.4412,-0.2621 -0.8557,-0.5615 -1.2435,-0.898 -0.3878,-0.3364 -0.7427,-0.7047 -1.0648,-1.1048 -0.3221,-0.4001 -0.6062,-0.8257 -0.8523,-1.2768 -0.2462,-0.451 -0.4504,-0.9203 -0.6128,-1.408 -0.1624,-0.4876 -0.2803,-0.9859 -0.3537,-1.4947 -0.0188,-0.1488 -0.007,-0.295 0.0359,-0.4388 0.0428,-0.1437 0.1127,-0.2727 0.2098,-0.3869 0.097,-0.1141 0.2129,-0.2038 0.3477,-0.269 0.1348,-0.0652 0.277,-0.1003 0.4265,-0.1053 z"
               style="fill:#000000;fill-opacity:1;fill-rule:nonzero;stroke:none"
               id="path104"
               inkscape:connector-curvature="0" /></g></g><g
           id="g166"><g
             id="g168"
             clip-path="url(#clipPath172)"><g
               id="g174"
               transform="matrix(7.874016e-5,0,0,-7.874016e-5,379.125,248.625)"><path
                 d="M 2.959301,1338983 C -1732.895,601198 602613.7,1715.561 1349849,1.659078 2097084,-1712.243 2704245,594991.5 2705981,1332777 c 2,1123 4,2247 3,3371 l -718514,-142 c 71,-340960.2 -283936,-617419.5 -634348,-617488.8 -350413,-69.3 -634535.4,276277.6 -634606.6,617237.8 -0.1,527 0.5,1054 1.8,1581 z"
                 style="fill:none;stroke:#000000;stroke-width:28575;stroke-linecap:butt;stroke-linejoin:miter;stroke-miterlimit:8;stroke-dasharray:none;stroke-opacity:1"
                 id="path176"
                 inkscape:connector-curvature="0" /></g><path
               d="m 463.8139,150.663 c 0,17.108 14.431,30.9768 32.2326,30.9768 17.8015,0 32.2326,-13.8688 32.2326,-30.9768 0,-17.108 -14.4311,-30.9768 -32.2326,-30.9768 -17.8016,0 -32.2326,13.8688 -32.2326,30.9768 z"
               style="fill:#ffffff;fill-opacity:1;fill-rule:nonzero;stroke:none"
               id="path178"
               inkscape:connector-curvature="0" /><g
               id="g180"
               transform="matrix(7.874016e-5,0,0,-7.874016e-5,463.8139,181.6398)"><path
                 d="M 0,393405 C 0,176133.4 183273.8,0 409353.5,0 635433.2,0 818707,176133.4 818707,393405 818707,610676.6 635433.2,786810 409353.5,786810 183273.8,786810 0,610676.6 0,393405 Z"
                 style="fill:none;stroke:#ffffff;stroke-width:12700;stroke-linecap:butt;stroke-linejoin:miter;stroke-miterlimit:8;stroke-dasharray:none;stroke-opacity:1"
                 id="path182"
                 inkscape:connector-curvature="0" /></g><path
               d="m 474.5799,150.1357 c 0,6.3119 5.1207,11.4288 11.4373,11.4288 6.3166,0 11.4373,-5.1169 11.4373,-11.4288 0,-6.312 -5.1207,-11.4289 -11.4373,-11.4289 -6.3166,0 -11.4373,5.1169 -11.4373,11.4289 z"
               style="fill:#000000;fill-opacity:1;fill-rule:nonzero;stroke:none"
               id="path184"
               inkscape:connector-curvature="0" /><g
               id="g186"
               transform="matrix(7.874016e-5,0,0,-7.874016e-5,474.5799,161.5645)"><path
                 d="M 0,145146.5 C 0,64984.3 65032.21,0 145253.5,0 225474.8,0 290507,64984.3 290507,145146.5 290507,225308.7 225474.8,290293 145253.5,290293 65032.21,290293 0,225308.7 0,145146.5 Z"
                 style="fill:none;stroke:#000000;stroke-width:12700;stroke-linecap:butt;stroke-linejoin:miter;stroke-miterlimit:8;stroke-dasharray:none;stroke-opacity:1"
                 id="path188"
                 inkscape:connector-curvature="0" /></g><path
               d="m 469.4781,144.7314 41.7152,30.7945 8.768,-1.3206 -1.3205,-8.7679 -41.7152,-30.7946 z"
               style="fill:#000000;fill-opacity:1;fill-rule:nonzero;stroke:none"
               id="path190"
               inkscape:connector-curvature="0" /><g
               id="g192"
               transform="matrix(6.334882e-5,4.676471e-5,4.676471e-5,-6.334882e-5,469.4781,144.7314)"><path
                 d="M 0,0 H 658499.8 L 738126,79627.41 658499.8,159254 H 0 Z"
                 style="fill:none;stroke:#000000;stroke-width:12700;stroke-linecap:butt;stroke-linejoin:miter;stroke-miterlimit:8;stroke-dasharray:none;stroke-opacity:1"
                 id="path194"
                 inkscape:connector-curvature="0" /></g></g></g></g><flowRoot
         transform="matrix(1.1794927,0,0,-1.1794927,-104.39769,457.52834)"
         style="font-style:normal;font-variant:normal;font-weight:600;font-stretch:normal;font-size:96px;line-height:1.25;font-family:FreeSans;-inkscape-font-specification:'FreeSans Semi-Bold';letter-spacing:0px;word-spacing:0px;fill:#000000;fill-opacity:1;stroke:none"
         id="flowRoot4704"
         xml:space="preserve"><flowRegion
           style="font-style:normal;font-variant:normal;font-weight:600;font-stretch:normal;font-size:96px;font-family:FreeSans;-inkscape-font-specification:'FreeSans Semi-Bold'"
           id="flowRegion4706"><rect
             style="font-style:normal;font-variant:normal;font-weight:600;font-stretch:normal;font-size:96px;font-family:FreeSans;-inkscape-font-specification:'FreeSans Semi-Bold'"
             y="59.491524"
             x="228.81355"
             height="254.74576"
             width="1134.9153"
             id="rect4708" /></flowRegion><flowPara
           style="font-style:normal;font-variant:normal;font-weight:bold;font-stretch:normal;font-family:FreeMono;-inkscape-font-specification:'FreeMono Bold'"
           id="flowPara4710">No Ra Re</flowPara></flowRoot></g></g></svg>